<?xml version="1.0" encoding="UTF-8"?>
<svg version="1.1" xmlns="http://www.w3.org/2000/svg" width="280" height="214">
<path d="M0 0 C6.86783733 -0.22855169 13.73469243 -0.38594448 20.60546875 -0.49438477 C22.94145346 -0.53959424 25.27718419 -0.60097605 27.61230469 -0.67895508 C30.97394395 -0.78838716 34.33221486 -0.83921873 37.6953125 -0.87890625 C39.25658371 -0.9485836 39.25658371 -0.9485836 40.84939575 -1.01966858 C47.94562011 -1.02458806 47.94562011 -1.02458806 50.89767456 1.84405518 C52.46358464 4.16293036 53.75042246 6.49840428 55 9 C56.01876221 10.61817627 56.01876221 10.61817627 57.05810547 12.26904297 C59.00393921 15.46693275 60.9424498 18.669064 62.875 21.875 C63.57028654 23.0130367 64.26559889 24.15105762 64.9609375 25.2890625 C65.93546875 26.90554687 65.93546875 26.90554687 66.9296875 28.5546875 C67.51991699 29.52905762 68.11014648 30.50342773 68.71826172 31.50732422 C70 34 70 34 70 37 C70.66 37 71.32 37 72 37 C72.35191406 37.65484375 72.70382813 38.3096875 73.06640625 38.984375 C76.90239786 46.07545087 80.90399998 53.05618932 85 60 C87.72786665 56.54929171 89.95389858 52.84143914 92.1875 49.0625 C92.99182684 47.71593034 93.79652116 46.36958012 94.6015625 45.0234375 C95.76043356 43.08147023 96.91790635 41.138772 98.06933594 39.19238281 C108.75950803 21.14950829 120.3601142 8.28250343 140.69140625 1.828125 C160.38352766 -2.8363775 176.71386115 1.54874746 194 11 C194 11.66 194 12.32 194 13 C194.556875 13.2475 195.11375 13.495 195.6875 13.75 C206.25192431 19.46049963 213.2543735 31.69419264 216.93359375 42.82421875 C222.10365734 60.95654703 220.43242441 77.57246499 211.62109375 94.171875 C210.48369583 96.15615474 209.26868073 98.0969789 208 100 C207.34 100 206.68 100 206 100 C211.97250441 111.24093309 218.51266635 122.14183346 225.02099609 133.07723999 C226.46662498 135.50682258 227.91082479 137.93725357 229.3550415 140.36767578 C230.41971587 142.15760141 231.48689201 143.94601843 232.55419922 145.734375 C233.21564941 146.84683594 233.87709961 147.95929688 234.55859375 149.10546875 C235.14954834 150.09699951 235.74050293 151.08853027 236.34936523 152.11010742 C238.01395316 155.02442886 239.5276993 157.98462298 241 161 C234.11371255 161.20295239 227.22819623 161.34298094 220.33959961 161.43945312 C217.99685856 161.47966907 215.65431809 161.53425187 213.31225586 161.60351562 C209.94334486 161.70064768 206.57708748 161.7459455 203.20703125 161.78125 C202.16102249 161.82254028 201.11501373 161.86383057 200.03730774 161.90637207 C192.92956652 161.9107517 192.92956652 161.9107517 190.29397583 159.32850647 C188.99345912 157.27069089 187.97491103 155.22800178 187 153 C186.49629883 152.17298584 185.99259766 151.34597168 185.47363281 150.49389648 C185.05436523 149.79337158 184.63509766 149.09284668 184.203125 148.37109375 C183.72335205 147.57058594 183.2435791 146.77007812 182.74926758 145.9453125 C181.72563566 144.23309184 180.70203686 142.52085139 179.6784668 140.80859375 C177.2194968 136.69708406 174.75556641 132.58961506 172.25390625 128.50390625 C171.83915039 127.82336182 171.42439453 127.14281738 170.99707031 126.44165039 C170.22844286 125.18177939 169.45588181 123.92429661 168.67871094 122.66967773 C166.95188972 119.82955416 165.54263599 117.30441022 165 114 C164.34 114 163.68 114 163 114 C162.52433594 113.10474609 162.52433594 113.10474609 162.0390625 112.19140625 C158.3155281 105.26892379 154.38088616 98.49402072 150.34033203 91.75219727 C149.92251465 91.05022217 149.50469727 90.34824707 149.07421875 89.625 C148.69869873 88.99851562 148.32317871 88.37203125 147.9362793 87.7265625 C147 86 147 86 146 83 C146.94101563 82.95101562 147.88203125 82.90203125 148.8515625 82.8515625 C150.71941406 82.73941406 150.71941406 82.73941406 152.625 82.625 C154.46964844 82.52058594 154.46964844 82.52058594 156.3515625 82.4140625 C163.49258121 81.60362569 168.92247602 79.06631532 174 74 C176.9642361 69.23358714 178.04677254 63.52575119 177 58 C174.969263 51.86078121 172.21012631 46.87185325 166.37109375 43.78125 C160.84678748 41.96105024 154.9215428 41.68647436 149.55859375 44.09765625 C147.45055494 45.38814992 147.45055494 45.38814992 145.62109375 46.80859375 C144 48 144 48 141 49 C140.26930594 50.63960618 139.6160502 52.31396786 139 54 C137.82482643 56.18482973 136.61273337 58.34999303 135.375 60.5 C135.02308594 61.11166016 134.67117187 61.72332031 134.30859375 62.35351562 C131.31738046 67.52160834 128.18300622 72.59639276 125.03125 77.66796875 C121.55556995 83.36942084 118.27874271 89.18371971 115 95 C114.34 95 113.68 95 113 95 C112.90976563 95.52464844 112.81953125 96.04929687 112.7265625 96.58984375 C111.54279501 100.51664235 109.36620105 103.92467574 107.25415039 107.41455078 C105.46183193 110.38591433 103.96155946 113.101215 102.72265625 116.36328125 C101.17913618 119.98046659 100.21897353 121.68650425 97 124 C89.56973634 125.88915085 81.43747181 125.82934826 74 124 C69.97333312 121.33764961 68.70132002 118.42581152 67 114 C66.04096383 112.21818416 65.0614246 110.44726354 64.0625 108.6875 C63.57136719 107.76195312 63.08023438 106.83640625 62.57421875 105.8828125 C60.31159632 101.73935008 57.80775331 97.75884688 55.31640625 93.75 C47.5247794 81.18527773 40.04585889 68.42249048 32.5402832 55.68579102 C29.54372917 50.60210392 26.52714537 45.53126514 23.48681641 40.47363281 C22.0116409 38.01936709 20.54045943 35.56274939 19.0703125 33.10546875 C18.08862615 31.46609524 17.10685383 29.82677321 16.125 28.1875 C15.60760254 27.32310303 15.09020508 26.45870605 14.55712891 25.56811523 C12.23409853 21.69411409 9.90426059 17.82616335 7.515625 13.9921875 C7.14937012 13.4041333 6.78311523 12.8160791 6.40576172 12.21020508 C5.44890859 10.68064521 4.48640658 9.15462309 3.5234375 7.62890625 C2.077458 5.13366471 1.03939539 2.68318827 0 0 Z " fill="#62BDB3" transform="translate(12,30)"/>
<path d="M0 0 C0.85464844 0.32226562 1.70929688 0.64453125 2.58984375 0.9765625 C7.99084946 3.28984241 9.516917 5.94515247 12 11 C13.0828125 12.299375 13.0828125 12.299375 14.1875 13.625 C16.12584252 16.1648971 16.6412627 17.86104866 17 21 C18.32 20.67 19.64 20.34 21 20 C21.495 22.475 21.495 22.475 22 25 C22.66 24.34 23.32 23.68 24 23 C24.80255775 38.24859716 20.37769649 51.43345527 12 64 C11.34 64 10.68 64 10 64 C15.97250441 75.24093309 22.51266635 86.14183346 29.02099609 97.07723999 C30.46662498 99.50682258 31.91082479 101.93725357 33.3550415 104.36767578 C34.41971587 106.15760141 35.48689201 107.94601843 36.55419922 109.734375 C37.54637451 111.40306641 37.54637451 111.40306641 38.55859375 113.10546875 C39.44502563 114.59276489 39.44502563 114.59276489 40.34936523 116.11010742 C42.01395316 119.02442886 43.5276993 121.98462298 45 125 C38.11371255 125.20295239 31.22819623 125.34298094 24.33959961 125.43945312 C21.99685856 125.47966907 19.65431809 125.53425187 17.31225586 125.60351562 C13.94334486 125.70064768 10.57708748 125.7459455 7.20703125 125.78125 C6.16102249 125.82254028 5.11501373 125.86383057 4.03730774 125.90637207 C-3.07043348 125.9107517 -3.07043348 125.9107517 -5.70602417 123.32850647 C-7.00654088 121.27069089 -8.02508897 119.22800178 -9 117 C-9.75555176 115.75947876 -9.75555176 115.75947876 -10.52636719 114.49389648 C-10.94563477 113.79337158 -11.36490234 113.09284668 -11.796875 112.37109375 C-12.51653442 111.17033203 -12.51653442 111.17033203 -13.25073242 109.9453125 C-14.27436434 108.23309184 -15.29796314 106.52085139 -16.3215332 104.80859375 C-18.7805032 100.69708406 -21.24443359 96.58961506 -23.74609375 92.50390625 C-24.36822754 91.4830896 -24.36822754 91.4830896 -25.00292969 90.44165039 C-25.77155714 89.18177939 -26.54411819 87.92429661 -27.32128906 86.66967773 C-29.04811028 83.82955416 -30.45736401 81.30441022 -31 78 C-31.66 78 -32.32 78 -33 78 C-33.47566406 77.10474609 -33.47566406 77.10474609 -33.9609375 76.19140625 C-37.6844719 69.26892379 -41.61911384 62.49402072 -45.65966797 55.75219727 C-46.07748535 55.05022217 -46.49530273 54.34824707 -46.92578125 53.625 C-47.30130127 52.99851563 -47.67682129 52.37203125 -48.0637207 51.7265625 C-49 50 -49 50 -50 47 C-49.05898437 46.95101562 -48.11796875 46.90203125 -47.1484375 46.8515625 C-45.90320313 46.77679688 -44.65796875 46.70203125 -43.375 46.625 C-41.53035156 46.52058594 -41.53035156 46.52058594 -39.6484375 46.4140625 C-32.50741879 45.60362569 -27.07752398 43.06631532 -22 38 C-19.0357639 33.23358714 -17.95322746 27.52575119 -19 22 C-21.030737 15.86078121 -23.78987369 10.87185325 -29.62890625 7.78125 C-35.16904234 5.95583448 -41.13519115 5.64893084 -46.4765625 8.16796875 C-48.61618103 9.51319028 -48.61618103 9.51319028 -50.4765625 11.00390625 C-50.97929687 11.33261719 -51.48203125 11.66132812 -52 12 C-52.66 11.67 -53.32 11.34 -54 11 C-38.69865408 -6.12534742 -20.58348296 -8.10225837 0 0 Z " fill="#43AFB0" transform="translate(208,66)"/>
<path d="M0 0 C0 0.66 0 1.32 0 2 C0.556875 2.2475 1.11375 2.495 1.6875 2.75 C12.25722275 8.46336365 19.21272728 20.67316853 22.93359375 31.7890625 C27.26856936 46.84739884 27.26856936 46.84739884 24 53 C23.67 53 23.34 53 23 53 C22.67 51.02 22.34 49.04 22 47 C20.515 46.505 20.515 46.505 19 46 C18.0078125 44.36328125 18.0078125 44.36328125 17.125 42.3125 C15.77589655 39.39467161 14.38690905 37.09001357 12.25 34.6875 C10 32 10 32 10 29 C9.030625 28.7525 8.06125 28.505 7.0625 28.25 C4.07089278 27.40388887 1.32388104 26.29811341 -1.5 25 C-12.60315076 19.99891697 -22.69534991 19.46823216 -34.171875 23.734375 C-41.26362163 26.90802957 -46.29854245 30.87385834 -51 37 C-51.99 37.495 -51.99 37.495 -53 38 C-53.69738297 39.65404934 -54.35731723 41.32393882 -55 43 C-56.08304088 45.12606793 -57.21041644 47.22998049 -58.375 49.3125 C-58.96023437 50.38113281 -59.54546875 51.44976562 -60.1484375 52.55078125 C-61.06496094 53.76314453 -61.06496094 53.76314453 -62 55 C-63.32 55 -64.64 55 -66 55 C-66 54.34 -66 53.68 -66 53 C-66.99 53.66 -67.98 54.32 -69 55 C-68.67 55.99 -68.34 56.98 -68 58 C-68.9375 61.1875 -68.9375 61.1875 -70 64 C-72.31 64 -74.62 64 -77 64 C-76.67 64.99 -76.34 65.98 -76 67 C-76.66 67 -77.32 67 -78 67 C-78 67.99 -78 68.98 -78 70 C-83.02795081 71.0523618 -86.44715268 70.92186153 -91.25 69.1875 C-93 68 -93 68 -93.75 65.875 C-93.8325 65.25625 -93.915 64.6375 -94 64 C-94.721875 64.165 -95.44375 64.33 -96.1875 64.5 C-99.55856109 63.90070025 -99.98686083 63.2687439 -101.9375 60.5625 C-103.90847369 57.11635655 -104.22075037 55.10686602 -103.3125 51.25 C-103.08175781 50.53328125 -102.85101563 49.8165625 -102.61328125 49.078125 C-101.81130356 46.72171712 -101.81130356 46.72171712 -102 43 C-102.66 44.32 -103.32 45.64 -104 47 C-104.66 47 -105.32 47 -106 47 C-103.70821384 40.84405823 -100.24156624 35.42890185 -96.875 29.8125 C-96.235625 28.72646484 -95.59625 27.64042969 -94.9375 26.52148438 C-84.54444939 9.14755941 -72.85011353 -2.96821793 -53.30859375 -9.171875 C-33.61647234 -13.8363775 -17.28613885 -9.45125254 0 0 Z " fill="#7CB8A7" transform="translate(206,41)"/>
<path d="M0 0 C0.66 0 1.32 0 2 0 C2 0.66 2 1.32 2 2 C2.99 1.67 3.98 1.34 5 1 C4.38255275 3.9566224 3.44641687 6.21015732 1.890625 8.79296875 C1.46765137 9.50203369 1.04467773 10.21109863 0.60888672 10.94165039 C-0.06376221 12.05334595 -0.06376221 12.05334595 -0.75 13.1875 C-1.65965869 14.71045725 -2.56852036 16.23389086 -3.4765625 17.7578125 C-3.91258789 18.48774414 -4.34861328 19.21767578 -4.79785156 19.96972656 C-6.94841374 23.6017483 -8.9789963 27.29482655 -11 31 C-11.66 31 -12.32 31 -13 31 C-13.13535156 31.78697266 -13.13535156 31.78697266 -13.2734375 32.58984375 C-14.45720499 36.51664235 -16.63379895 39.92467574 -18.74584961 43.41455078 C-20.53816807 46.38591433 -22.03844054 49.101215 -23.27734375 52.36328125 C-24.82222295 55.98365166 -25.77391841 57.68918313 -29 60 C-32.85523062 60.9484848 -36.60201328 61.16478869 -40.5625 61.25 C-41.58093994 61.28399902 -42.59937988 61.31799805 -43.64868164 61.35302734 C-48.01608091 61.22494273 -50.8773425 61.12613322 -54.05029297 57.94335938 C-58 52.10859123 -58 52.10859123 -58 50 C-55.36 50 -52.72 50 -50 50 C-50 51.98 -50 53.96 -50 56 C-44.29309366 56.99250545 -38.78591511 57.10477512 -33 57 C-33.20625 56.21625 -33.4125 55.4325 -33.625 54.625 C-33.74875 53.75875 -33.8725 52.8925 -34 52 C-32 50 -32 50 -26 49 C-26 44.38 -26 39.76 -26 35 C-20.375 33.875 -20.375 33.875 -17 35 C-17.09539062 34.38511719 -17.19078125 33.77023438 -17.2890625 33.13671875 C-17.39992187 32.32847656 -17.51078125 31.52023438 -17.625 30.6875 C-17.74101563 29.88699219 -17.85703125 29.08648437 -17.9765625 28.26171875 C-18 26 -18 26 -16 23 C-16.66 23 -17.32 23 -18 23 C-18 22.34 -18 21.68 -18 21 C-18.66 20.67 -19.32 20.34 -20 20 C-17.69 20 -15.38 20 -13 20 C-12.505 18.515 -12.505 18.515 -12 17 C-11.34 17 -10.68 17 -10 17 C-9.31292445 14.50935112 -9 12.62113708 -9 10 C-7.02 10 -5.04 10 -3 10 C-2.01 7.69 -1.02 5.38 0 3 C-0.66 2.67 -1.32 2.34 -2 2 C-1.34 1.34 -0.68 0.68 0 0 Z " fill="#4EAFB0" transform="translate(138,94)"/>
<path d="M0 0 C4.56351039 0.48036952 4.56351039 0.48036952 6.3125 2.5625 C7.30599145 6.08487876 7.05901695 9.34094938 7 13 C7.89335797 15.35785318 7.89335797 15.35785318 11.0625 16.125 C12.5165625 16.558125 12.5165625 16.558125 14 17 C14.103125 18.051875 14.20625 19.10375 14.3125 20.1875 C14.98746557 23.93049091 16.03376023 25.83691863 18 29 C18 30.32 18 31.64 18 33 C18.9590625 32.7215625 18.9590625 32.7215625 19.9375 32.4375 C20.618125 32.293125 21.29875 32.14875 22 32 C22.495 32.495 22.495 32.495 23 33 C25.3756852 33.0883967 27.72208674 33.11530305 30.09765625 33.09765625 C30.80651474 33.0962413 31.51537323 33.09482635 32.24571228 33.09336853 C34.51801712 33.08775443 36.79022475 33.07519963 39.0625 33.0625 C40.59960796 33.05748681 42.13671745 33.05292359 43.67382812 33.04882812 C47.44925642 33.03778042 51.22461171 33.02050641 55 33 C55 33.66 55 34.32 55 35 C57.64 35.66 60.28 36.32 63 37 C63 35.35 63 33.7 63 32 C66.32901247 34.21934164 66.75023244 35.34683329 68 39 C61.11371255 39.20295239 54.22819623 39.34298094 47.33959961 39.43945312 C44.99685856 39.47966907 42.65431809 39.53425187 40.31225586 39.60351562 C36.94334486 39.70064768 33.57708748 39.7459455 30.20703125 39.78125 C29.16102249 39.82254028 28.11501373 39.86383057 27.03730774 39.90637207 C19.93313007 39.91074951 19.93313007 39.91074951 17.30262756 37.34333801 C15.99905047 35.28156179 14.98048269 33.23113011 14 31 C13.45964111 30.11014404 12.91928223 29.22028809 12.36254883 28.3034668 C11.89872803 27.52656494 11.43490723 26.74966309 10.95703125 25.94921875 C10.18262695 24.65467773 10.18262695 24.65467773 9.39257812 23.33398438 C8.87115234 22.46064453 8.34972656 21.58730469 7.8125 20.6875 C6.7572006 18.92016062 5.70123958 17.15321608 4.64453125 15.38671875 C4.18409424 14.61545654 3.72365723 13.84419434 3.24926758 13.04956055 C2.20752843 11.34047316 1.11025987 9.6653898 0 8 C0.375 5.8125 0.375 5.8125 1 4 C1.66 4 2.32 4 3 4 C2.01 3.34 1.02 2.68 0 2 C0 1.34 0 0.68 0 0 Z " fill="#98CECC" transform="translate(185,152)"/>
<path d="M0 0 C8.80676755 7.39486093 12.01250511 20.45230376 13.8125 31.375 C13.99808557 34.96298775 13.66673002 36.86262584 12 40 C11.67 40 11.34 40 11 40 C10.67 38.02 10.34 36.04 10 34 C8.515 33.505 8.515 33.505 7 33 C6.0078125 31.36328125 6.0078125 31.36328125 5.125 29.3125 C3.77589655 26.39467161 2.38690905 24.09001357 0.25 21.6875 C-2 19 -2 19 -2 16 C-2.969375 15.7525 -3.93875 15.505 -4.9375 15.25 C-9.49410178 13.96145278 -13.71841403 12.00001521 -18 10 C-18 9.34 -18 8.68 -18 8 C-15 7 -15 7 -12.25 8.3125 C-11.1775 8.869375 -10.105 9.42625 -9 10 C-6.68367576 10.77210808 -4.36534261 11.38501092 -2 12 C-2 8.7 -2 5.4 -2 2 C-2.66 1.67 -3.32 1.34 -4 1 C-2.25 0.25 -2.25 0.25 0 0 Z " fill="#64C2B6" transform="translate(218,54)"/>
<path d="M0 0 C0.99 0.33 1.98 0.66 3 1 C3.125 8.625 3.125 8.625 2 12 C1.77266072 14.83332104 1.61981954 17.66515481 1.4765625 20.50390625 C1.24066406 21.73947266 1.24066406 21.73947266 1 23 C0.01 23.66 -0.98 24.32 -2 25 C-2 24.34 -2 23.68 -2 23 C-7.94 25.475 -7.94 25.475 -14 28 C-14 29.32 -14 30.64 -14 32 C-14.5775 31.773125 -15.155 31.54625 -15.75 31.3125 C-18.12172477 30.73494807 -18.12172477 30.73494807 -20.25 32.4375 C-20.8275 32.953125 -21.405 33.46875 -22 34 C-21.67 35.32 -21.34 36.64 -21 38 C-19.68 38.33 -18.36 38.66 -17 39 C-17.33 39.99 -17.66 40.98 -18 42 C-16.02 41.505 -16.02 41.505 -14 41 C-13.67 43.31 -13.34 45.62 -13 48 C-13.66 48 -14.32 48 -15 48 C-15.33 48.66 -15.66 49.32 -16 50 C-16 48.68 -16 47.36 -16 46 C-17.32 46.66 -18.64 47.32 -20 48 C-21.81700979 44.89845222 -23.62782136 41.79333013 -25.4375 38.6875 C-26.2119043 37.36588867 -26.2119043 37.36588867 -27.00195312 36.01757812 C-27.49501953 35.17001953 -27.98808594 34.32246094 -28.49609375 33.44921875 C-28.95169678 32.66893311 -29.4072998 31.88864746 -29.87670898 31.0847168 C-31 29 -31 29 -32 26 C-30.58847656 25.92652344 -30.58847656 25.92652344 -29.1484375 25.8515625 C-27.28058594 25.73941406 -27.28058594 25.73941406 -25.375 25.625 C-24.14523438 25.55539063 -22.91546875 25.48578125 -21.6484375 25.4140625 C-14.50740941 24.60362462 -9.07765971 22.06642595 -4 17 C-0.84680923 11.8706657 -0.39557515 5.89270566 0 0 Z " fill="#18ADAA" transform="translate(190,87)"/>
<path d="M0 0 C2.13048887 2.74584188 3.9688863 5.53406085 5.69921875 8.546875 C6.18583984 9.39121094 6.67246094 10.23554687 7.17382812 11.10546875 C7.67333984 11.97816406 8.17285156 12.85085937 8.6875 13.75 C9.19861328 14.63816406 9.70972656 15.52632812 10.23632812 16.44140625 C11.49321708 18.62627864 12.74768651 20.81250291 14 23 C14.66 22.34 15.32 21.68 16 21 C16.99 21 17.98 21 19 21 C19.66 19.35 20.32 17.7 21 16 C22.1875 17.5 22.1875 17.5 23 20 C22.39453125 21.8359375 22.39453125 21.8359375 21.5 23.875 C20.181633 27.00757998 19.96454224 27.81207386 20.625 31.3125 C22.26608154 34.66079129 22.26608154 34.66079129 25 37 C28.61023099 37.73041853 28.61023099 37.73041853 32 38 C31.34 38.99 30.68 39.98 30 41 C31.65 41.33 33.3 41.66 35 42 C35 42.99 35 43.98 35 45 C27.8287426 44.02210126 25.07627759 42.07627759 20 37 C18.9275 36.319375 17.855 35.63875 16.75 34.9375 C13.71685777 32.80051343 13.67740218 32.38701092 13 29 C11.0162233 27.71563266 11.0162233 27.71563266 9 27 C9 25 9 23 9 21 C8.01 21 7.02 21 6 21 C5.67 21.99 5.34 22.98 5 24 C5 20.7 5 17.4 5 14 C1.20211302 12.87873219 1.20211302 12.87873219 -2 13 C-1 10 -1 10 0 9 C-0.99 8.34 -1.98 7.68 -3 7 C-3 5.68 -3 4.36 -3 3 C-2.34 3 -1.68 3 -1 3 C-0.67 2.01 -0.34 1.02 0 0 Z " fill="#2FB4A7" transform="translate(83,67)"/>
<path d="M0 0 C3.7911903 1.2637301 3.95239379 2.28426562 5.7265625 5.76953125 C9.08703506 12.19225261 12.70759639 18.43606984 16.375 24.6875 C17.01566406 25.78255859 17.65632813 26.87761719 18.31640625 28.00585938 C19.87616629 30.67141945 21.43738343 33.33611385 23 36 C21 38 21 38 17.875 38.125 C16.92625 38.08375 15.9775 38.0425 15 38 C15 35.03 15 32.06 15 29 C14.05125 29.20625 13.1025 29.4125 12.125 29.625 C11.09375 29.74875 10.0625 29.8725 9 30 C8.34 29.34 7.68 28.68 7 28 C7.144375 27.443125 7.28875 26.88625 7.4375 26.3125 C8.22979201 23.05529951 7.52801756 20.28544258 7 17 C7 15.68 7 14.36 7 13 C5.02 13.33 3.04 13.66 1 14 C-0.79217969 8.83430559 -1.12029814 5.48946087 0 0 Z " fill="#A1DBD5" transform="translate(225,146)"/>
<path d="M0 0 C0.66 0.66 1.32 1.32 2 2 C1.690625 3.0828125 1.690625 3.0828125 1.375 4.1875 C0.79311606 8.55162958 2.47086473 10.44553961 5 14 C7.11341126 15.03525132 7.11341126 15.03525132 9 15 C9 17.31 9 19.62 9 22 C9.94875 21.979375 10.8975 21.95875 11.875 21.9375 C15 22 15 22 17 23 C17 24.32 17 25.64 17 27 C16.34 27 15.68 27 15 27 C15.39695637 28.62992692 15.81832493 30.25392235 16.25 31.875 C16.48203125 32.77992187 16.7140625 33.68484375 16.953125 34.6171875 C17.79914179 37.14957604 17.79914179 37.14957604 20.109375 38.3203125 C20.73328125 38.54460937 21.3571875 38.76890625 22 39 C21.67 40.65 21.34 42.3 21 44 C17.6187064 42.61173439 16.2451804 41.28680792 14.484375 38.10546875 C14.04150146 37.32042969 13.59862793 36.53539062 13.14233398 35.7265625 C12.68286377 34.88867188 12.22339355 34.05078125 11.75 33.1875 C10.77876449 31.46143938 9.80609986 29.73618215 8.83203125 28.01171875 C8.35459473 27.1614209 7.8771582 26.31112305 7.38525391 25.43505859 C5.47520472 22.0774924 3.47522317 18.78123459 1.4375 15.5 C0.81746094 14.4996875 0.19742188 13.499375 -0.44140625 12.46875 C-1.60244695 10.62970809 -2.79359521 8.80960718 -4 7 C-3.625 3.8125 -3.625 3.8125 -3 1 C-2.01 0.67 -1.02 0.34 0 0 Z " fill="#3FA59D" transform="translate(55,90)"/>
<path d="M0 0 C0 0.33 0 0.66 0 1 C-7.59 1 -15.18 1 -23 1 C-23.33 1.99 -23.66 2.98 -24 4 C-24.99 4.495 -24.99 4.495 -26 5 C-26.33 5.99 -26.66 6.98 -27 8 C-27.721875 7.814375 -28.44375 7.62875 -29.1875 7.4375 C-32.22673546 6.96473004 -34.02202026 7.30744657 -37 8 C-37.65613281 8.03867187 -38.31226563 8.07734375 -38.98828125 8.1171875 C-41.43124583 8.22300828 -41.43124583 8.22300828 -45 9 C-46.95335182 11.33790071 -46.95335182 11.33790071 -48 14 C-48.66 14.66 -49.32 15.32 -50 16 C-50.66 16 -51.32 16 -52 16 C-52.66 14.68 -53.32 13.36 -54 12 C-39.60369137 -0.60794731 -18.38318231 -5.76727288 0 0 Z " fill="#B3D7C2" transform="translate(184,32)"/>
<path d="M0 0 C3 2 3 2 5 7 C-11.17 7 -27.34 7 -44 7 C-44.33 6.01 -44.66 5.02 -45 4 C-43.0625 3.4375 -43.0625 3.4375 -41 3 C-40.67 3.33 -40.34 3.66 -40 4 C-37.99279077 3.71325582 -35.9914056 3.38133299 -34 3 C-34 2.67 -34 2.34 -34 2 C-25.42 1.67 -16.84 1.34 -8 1 C-8 1.66 -8 2.32 -8 3 C-5.36 3.66 -2.72 4.32 0 5 C0 3.35 0 1.7 0 0 Z " fill="#AEDAD7" transform="translate(248,184)"/>
<path d="M0 0 C-1.98 0.99 -1.98 0.99 -4 2 C-4 3.98 -4 5.96 -4 8 C-1.36 8.66 1.28 9.32 4 10 C4 10.66 4 11.32 4 12 C5.98 12.33 7.96 12.66 10 13 C11.23076923 18.41538462 11.23076923 18.41538462 10.0625 21.375 C9.711875 21.91125 9.36125 22.4475 9 23 C6.93185344 21.1386681 5.69383689 19.48608336 4.25 17.0625 C1.61301477 13.4732701 -0.78657311 11.3492011 -5 10 C-11.17211946 9.09158627 -16.29925128 9.08960739 -21.625 12.5625 C-22.23601562 13.03816406 -22.84703125 13.51382813 -23.4765625 14.00390625 C-23.97929687 14.33261719 -24.48203125 14.66132812 -25 15 C-25.66 14.67 -26.32 14.34 -27 14 C-21.14906595 7.45160362 -9.57265243 -3.6817894 0 0 Z " fill="#0B3942" transform="translate(181,63)"/>
<path d="M0 0 C5.47361889 0.5439085 9.58317001 2.55393801 14.375 5.0625 C15.11105469 5.43955078 15.84710938 5.81660156 16.60546875 6.20507812 C18.40739646 7.12944364 20.20423099 8.06372614 22 9 C22 9.66 22 10.32 22 11 C22.8353125 11.37125 22.8353125 11.37125 23.6875 11.75 C27.94713924 14.0525077 31.39793701 16.89147949 34 21 C34 21.66 34 22.32 34 23 C31.69 22.67 29.38 22.34 27 22 C26.67 22.66 26.34 23.32 26 24 C25 22 25 22 25 19 C24.34 18.01 23.68 17.02 23 16 C19.91634129 15.7497843 19.91634129 15.7497843 17 16 C16.67 13.69 16.34 11.38 16 9 C14.20994059 8.63779734 12.41787943 8.28547531 10.625 7.9375 C9.62726563 7.74027344 8.62953125 7.54304688 7.6015625 7.33984375 C5.02157461 6.75617048 5.02157461 6.75617048 3 8 C3 7.34 3 6.68 3 6 C2.01 6.33 1.02 6.66 0 7 C0 4.69 0 2.38 0 0 Z " fill="#87D0BE" transform="translate(184,32)"/>
<path d="M0 0 C16.04533821 -1.36234004 16.04533821 -1.36234004 20.3203125 1.6171875 C21.87892438 4.01046584 22.93293588 6.35125927 24 9 C25.10861913 11.029866 26.23367158 13.05084352 27.375 15.0625 C28.25426898 16.70605664 29.13084554 18.3510722 30 20 C29.34 20.66 28.68 21.32 28 22 C26.68 21.34 25.36 20.68 24 20 C23.01 20.66 22.02 21.32 21 22 C21.020625 20.7625 21.04125 19.525 21.0625 18.25 C21.06766681 15.3359175 20.93015558 12.79046673 20 10 C18.68 9.67 17.36 9.34 16 9 C16 8.01 16 7.02 16 6 C15.34 6 14.68 6 14 6 C13.67 4.68 13.34 3.36 13 2 C9.04 2 5.08 2 1 2 C0.67 1.34 0.34 0.68 0 0 Z " fill="#BDDBD2" transform="translate(43,30)"/>
<path d="M0 0 C1.30453125 0.07863281 2.6090625 0.15726563 3.953125 0.23828125 C7.49071943 0.6568238 10.43213226 1.42526771 13.75 2.6875 C14.08 1.6975 14.41 0.7075 14.75 -0.3125 C17.39 0.6775 20.03 1.6675 22.75 2.6875 C21.76 3.6775 20.77 4.6675 19.75 5.6875 C18.14520314 5.51677693 16.54008531 5.32463762 14.953125 5.03125 C3.08633182 3.17969362 -7.53990902 5.71615263 -17.25 12.6875 C-18.24 12.6875 -19.23 12.6875 -20.25 12.6875 C-20.25 11.0375 -20.25 9.3875 -20.25 7.6875 C-18.62548581 7.35180703 -17.00037083 7.0190204 -15.375 6.6875 C-14.47007812 6.501875 -13.56515625 6.31625 -12.6328125 6.125 C-10.25 5.6875 -10.25 5.6875 -8.25 5.6875 C-7.92 4.3675 -7.59 3.0475 -7.25 1.6875 C-7.91 1.3575 -8.57 1.0275 -9.25 0.6875 C-6.172574 -0.851213 -3.40237981 -0.22348965 0 0 Z " fill="#A2D6C1" transform="translate(180.25,57.3125)"/>
<path d="M0 0 C1.07765625 0.01804687 2.1553125 0.03609375 3.265625 0.0546875 C4.49539062 0.08949219 4.49539062 0.08949219 5.75 0.125 C5.75 1.115 5.75 2.105 5.75 3.125 C5.1725 2.898125 4.595 2.67125 4 2.4375 C1.62827523 1.85994807 1.62827523 1.85994807 -0.5 3.5625 C-1.0775 4.078125 -1.655 4.59375 -2.25 5.125 C-1.92 6.445 -1.59 7.765 -1.25 9.125 C0.07 9.455 1.39 9.785 2.75 10.125 C2.42 11.115 2.09 12.105 1.75 13.125 C3.07 12.795 4.39 12.465 5.75 12.125 C6.08 14.435 6.41 16.745 6.75 19.125 C6.09 19.125 5.43 19.125 4.75 19.125 C4.42 19.785 4.09 20.445 3.75 21.125 C3.75 19.805 3.75 18.485 3.75 17.125 C1.77 18.115 1.77 18.115 -0.25 19.125 C-3.55 13.515 -6.85 7.905 -10.25 2.125 C-6.14441282 0.07220641 -4.44793315 -0.0966942 0 0 Z " fill="#20AEA7" transform="translate(170.25,115.875)"/>
<path d="M0 0 C1.1875 1.5 1.1875 1.5 2 4 C1.39453125 5.8359375 1.39453125 5.8359375 0.5 7.875 C-0.818367 11.00757998 -1.03545776 11.81207386 -0.375 15.3125 C1.26608154 18.66079129 1.26608154 18.66079129 4 21 C7.61023099 21.73041853 7.61023099 21.73041853 11 22 C10.34 22.99 9.68 23.98 9 25 C10.65 25.33 12.3 25.66 14 26 C14 26.99 14 27.98 14 29 C8.38680462 28.23456427 5.34412982 27.6355462 1.67578125 23.171875 C0.87871144 22.03773586 0.09117533 20.89684637 -0.6875 19.75 C-1.29174805 18.90888672 -1.29174805 18.90888672 -1.90820312 18.05078125 C-4.42135319 14.40524028 -5.7247479 11.42963844 -6 7 C-5.67 6.34 -5.34 5.68 -5 5 C-4.01 5 -3.02 5 -2 5 C-1.34 3.35 -0.68 1.7 0 0 Z " fill="#135C5B" transform="translate(104,83)"/>
<path d="M0 0 C2.64 0 5.28 0 8 0 C8 1.98 8 3.96 8 6 C13.11009222 6.99980065 17.5034983 6.89641517 22.66796875 6.25390625 C25 6 25 6 29 6 C29.33 6.66 29.66 7.32 30 8 C29.67 8.66 29.34 9.32 29 10 C25.29302295 10.26260373 21.58843642 10.42156838 17.875 10.5625 C16.82828125 10.63791016 15.7815625 10.71332031 14.703125 10.79101562 C11.56397784 10.88042172 9.02969065 10.84418452 6 10 C3.24478165 7.3411044 1.52891407 4.49615021 0 1 C0 0.67 0 0.34 0 0 Z " fill="#539396" transform="translate(80,144)"/>
<path d="M0 0 C0.66 0.33 1.32 0.66 2 1 C2 3.62113708 1.68707555 5.50935112 1 8 C1.66 8 2.32 8 3 8 C3 8.66 3 9.32 3 10 C2.34 10 1.68 10 1 10 C0.67 10.99 0.34 11.98 0 13 C-0.66 13.268125 -1.32 13.53625 -2 13.8125 C-2.66 14.204375 -3.32 14.59625 -4 15 C-4.144375 15.99 -4.28875 16.98 -4.4375 18 C-4.7159375 19.485 -4.7159375 19.485 -5 21 C-6.6476038 21.71247732 -8.31763529 22.37400383 -10 23 C-11.37843192 24.96918846 -12.71810412 26.96664791 -14 29 C-14.66 29 -15.32 29 -16 29 C-14.57885846 25.17877607 -12.80810468 21.77377795 -10.7421875 18.26171875 C-9.80439453 16.66166992 -9.80439453 16.66166992 -8.84765625 15.02929688 C-8.19667969 13.92650391 -7.54570313 12.82371094 -6.875 11.6875 C-6.21628906 10.56537109 -5.55757812 9.44324219 -4.87890625 8.28710938 C-3.2556763 5.52291344 -1.62927846 2.76063368 0 0 Z " fill="#5F9C97" transform="translate(116,59)"/>
<path d="M0 0 C3.96 0 7.92 0 12 0 C11.34 1.32 10.68 2.64 10 4 C10.63028587 5.68076231 11.29788106 7.34795544 12 9 C11.5625 11.125 11.5625 11.125 11 13 C11.33 13.99 11.66 14.98 12 16 C11.34 16.66 10.68 17.32 10 18 C8.70337462 15.94047642 7.41264273 13.87762943 6.125 11.8125 C5.76019531 11.23435547 5.39539063 10.65621094 5.01953125 10.06054688 C2.94782319 6.72698027 1.47344043 3.68360107 0 0 Z " fill="#E9F5EB" transform="translate(12,30)"/>
<path d="M0 0 C4.56351039 0.48036952 4.56351039 0.48036952 6.3125 2.5625 C7.30599145 6.08487876 7.05901695 9.34094938 7 13 C7.89335797 15.35785318 7.89335797 15.35785318 11.0625 16.125 C12.5165625 16.558125 12.5165625 16.558125 14 17 C13.67 18.65 13.34 20.3 13 22 C8.80802953 20.68333695 7.09739662 19.29306847 4.8125 15.5625 C4.32394531 14.78003906 3.83539063 13.99757812 3.33203125 13.19140625 C2.89246094 12.46824219 2.45289063 11.74507812 2 11 C1.34 10.01 0.68 9.02 0 8 C0.375 5.8125 0.375 5.8125 1 4 C1.66 4 2.32 4 3 4 C2.01 3.34 1.02 2.68 0 2 C0 1.34 0 0.68 0 0 Z " fill="#6FC3BF" transform="translate(185,152)"/>
<path d="M0 0 C2.34438808 3.51658212 2.97972765 6.80356044 3.75 10.875 C3.90082031 11.58269531 4.05164063 12.29039063 4.20703125 13.01953125 C5.03318435 17.32675661 5.10610729 20.10828 3 24 C2.67 24 2.34 24 2 24 C1.67 22.02 1.34 20.04 1 18 C0.01 17.67 -0.98 17.34 -2 17 C-3.16796875 14.93359375 -3.16796875 14.93359375 -4.1875 12.4375 C-4.70376953 11.19806641 -4.70376953 11.19806641 -5.23046875 9.93359375 C-5.48441406 9.29550781 -5.73835937 8.65742187 -6 8 C-4.68 7.34 -3.36 6.68 -2 6 C-2 5.01 -2 4.02 -2 3 C-1.34 3 -0.68 3 0 3 C0 2.01 0 1.02 0 0 Z " fill="#52C3C1" transform="translate(227,70)"/>
<path d="M0 0 C0.66 0.66 1.32 1.32 2 2 C1.690625 3.0828125 1.690625 3.0828125 1.375 4.1875 C0.79311606 8.55162958 2.47086473 10.44553961 5 14 C7.11341126 15.03525132 7.11341126 15.03525132 9 15 C9 16.98 9 18.96 9 21 C7.68 21.33 6.36 21.66 5 22 C4.27683594 20.75283203 4.27683594 20.75283203 3.5390625 19.48046875 C2.90742187 18.39378906 2.27578125 17.30710937 1.625 16.1875 C0.99851562 15.10855469 0.37203125 14.02960938 -0.2734375 12.91796875 C-1.46055346 10.91168907 -2.70689373 8.93965941 -4 7 C-3.625 3.8125 -3.625 3.8125 -3 1 C-2.01 0.67 -1.02 0.34 0 0 Z " fill="#3BB8A7" transform="translate(55,90)"/>
<path d="M0 0 C12.80423206 -0.62206795 22.76385196 0.58361161 33 9 C33 9.33 33 9.66 33 10 C30.125 10.125 30.125 10.125 27 10 C26.34 9.34 25.68 8.68 25 8 C23.02 8.66 21.04 9.32 19 10 C19 8.68 19 7.36 19 6 C18.34 5.01 17.68 4.02 17 3 C13.98607678 2.41267101 13.98607678 2.41267101 10.5625 2.3125 C9.40878906 2.24675781 8.25507813 2.18101563 7.06640625 2.11328125 C5.045297 2.03861607 3.02248795 2 1 2 C0.67 1.34 0.34 0.68 0 0 Z " fill="#126768" transform="translate(182,62)"/>
<path d="M0 0 C3.89406452 1.29802151 4.19405992 2.67559288 6.0625 6.25 C6.56910156 7.20390625 7.07570312 8.1578125 7.59765625 9.140625 C8.86523401 11.72521252 9.97467415 14.31158581 11 17 C10.34 17.33 9.68 17.66 9 18 C8.34 17.67 7.68 17.34 7 17 C7 15.68 7 14.36 7 13 C5.02 13.33 3.04 13.66 1 14 C-0.79217969 8.83430559 -1.12029814 5.48946087 0 0 Z " fill="#8CCFCB" transform="translate(225,146)"/>
<path d="M0 0 C0.66 0 1.32 0 2 0 C2 0.66 2 1.32 2 2 C2.99 1.67 3.98 1.34 5 1 C3.81637374 6.48205849 1.57692592 12.0610265 -3.00390625 15.5078125 C-5.0152427 16.56719045 -6.79223211 17.45498617 -9 18 C-9.99 17.67 -10.98 17.34 -12 17 C-11.34 17 -10.68 17 -10 17 C-9.31292445 14.50935112 -9 12.62113708 -9 10 C-7.02 10 -5.04 10 -3 10 C-2.01 7.69 -1.02 5.38 0 3 C-0.66 2.67 -1.32 2.34 -2 2 C-1.34 1.34 -0.68 0.68 0 0 Z " fill="#438C85" transform="translate(138,94)"/>
<path d="M0 0 C3.3 0.99 6.6 1.98 10 3 C10 3.66 10 4.32 10 5 C12.97 5.495 12.97 5.495 16 6 C17.23076923 11.41538462 17.23076923 11.41538462 16.0625 14.375 C15.711875 14.91125 15.36125 15.4475 15 16 C12.95175909 14.15658318 11.72576348 12.53278223 10.3125 10.125 C7.73637595 6.64375128 5.34837696 5.12502389 1.609375 3.078125 C1.07828125 2.72234375 0.5471875 2.3665625 0 2 C0 1.34 0 0.68 0 0 Z " fill="#1D6B72" transform="translate(175,70)"/>
<path d="M0 0 C2.44413389 3.08269139 4.33109524 6.28471111 6.1875 9.75 C6.71730469 10.73484375 7.24710938 11.7196875 7.79296875 12.734375 C8.19128906 13.48203125 8.58960937 14.2296875 9 15 C6.97358909 14.49657015 4.95201156 13.98691224 2.9375 13.4375 C0.84332634 12.88986956 0.84332634 12.88986956 -2 13 C-1 10 -1 10 0 9 C-0.99 8.34 -1.98 7.68 -3 7 C-3 5.68 -3 4.36 -3 3 C-2.34 3 -1.68 3 -1 3 C-0.67 2.01 -0.34 1.02 0 0 Z " fill="#43C3AE" transform="translate(83,67)"/>
<path d="M0 0 C2.97 0 5.94 0 9 0 C8.51171875 3.3203125 8.51171875 3.3203125 8.0234375 6.640625 C7.99658602 9.34367439 8.7957612 10.63068465 10 13 C9.67 13.99 9.34 14.98 9 16 C0 2.63106796 0 2.63106796 0 0 Z " fill="#C5E5DA" transform="translate(23,48)"/>
<path d="M0 0 C0.99 0.33 1.98 0.66 3 1 C-0.80090498 10.23076923 -0.80090498 10.23076923 -3 13 C-6.1875 13.8125 -6.1875 13.8125 -9 14 C-8.814375 13.236875 -8.62875 12.47375 -8.4375 11.6875 C-7.77180827 8.91032625 -7.77180827 8.91032625 -9 6 C-5.98968256 5.06576355 -5.13349732 4.95550089 -2 6 C-1.855625 5.195625 -1.71125 4.39125 -1.5625 3.5625 C-1 1 -1 1 0 0 Z " fill="#4AB3B4" transform="translate(123,123)"/>
<path d="M0 0 C0.99 0 1.98 0 3 0 C4.35991738 6.32427599 5.37679879 12.56025419 6 19 C5.34 19 4.68 19 4 19 C3.34 20.32 2.68 21.64 2 23 C1.34 23 0.68 23 0 23 C0 20.03 0 17.06 0 14 C0.66 14 1.32 14 2 14 C1.81535634 9.65815798 1.81535634 9.65815798 0 6 C-0.04080783 4.00041636 -0.04254356 1.99954746 0 0 Z " fill="#1BA6A5" transform="translate(224,90)"/>
<path d="M0 0 C4.61251942 3.97189172 7.0631034 8.22177215 9 14 C9 14.99 9 15.98 9 17 C8.34 17 7.68 17 7 17 C7 15.35 7 13.7 7 12 C4.36 12 1.72 12 -1 12 C-1.02687279 10.18757948 -1.04633715 8.37504767 -1.0625 6.5625 C-1.07410156 5.55316406 -1.08570313 4.54382813 -1.09765625 3.50390625 C-1 1 -1 1 0 0 Z " fill="#60BFBE" transform="translate(217,132)"/>
<path d="M0 0 C0 0.66 0 1.32 0 2 C-2.99498482 4.84699734 -5.37335357 5.45688542 -9.4375 5.75 C-10.82775391 5.86601563 -10.82775391 5.86601563 -12.24609375 5.984375 C-14.98300354 5.99990357 -17.34508072 5.63602422 -20 5 C-20.33 4.01 -20.66 3.02 -21 2 C-20.04738281 1.93941406 -19.09476563 1.87882812 -18.11328125 1.81640625 C-16.23189453 1.69072266 -16.23189453 1.69072266 -14.3125 1.5625 C-13.07113281 1.48128906 -11.82976562 1.40007812 -10.55078125 1.31640625 C-7.01542349 1.00137437 -3.53116526 0 0 0 Z " fill="#2AA4A0" transform="translate(179,111)"/>
<path d="M0 0 C1.4800841 0.11362262 2.95910074 0.24122908 4.4375 0.375 C5.26121094 0.44460937 6.08492187 0.51421875 6.93359375 0.5859375 C7.95646484 0.79089844 7.95646484 0.79089844 9 1 C10 3 10 3 9.4375 4.9375 C9.293125 5.618125 9.14875 6.29875 9 7 C9.99 8.485 9.99 8.485 11 10 C10.01 10.99 9.02 11.98 8 13 C8 12.01 8 11.02 8 10 C6.68 10.33 5.36 10.66 4 11 C3.33125616 9.35500958 2.66505926 7.70898352 2 6.0625 C1.443125 4.68771484 1.443125 4.68771484 0.875 3.28515625 C0 1 0 1 0 0 Z " fill="#6CC9B5" transform="translate(38,71)"/>
<path d="M0 0 C-1.1080911 5.94339769 -2.13107596 9.05849006 -7 13 C-9.3125 14.3125 -9.3125 14.3125 -11 15 C-11 15.66 -11 16.32 -11 17 C-11.66 16.67 -12.32 16.34 -13 16 C-11.22244915 10.77844438 -6.24816652 0 0 0 Z " fill="#86BBAC" transform="translate(129,46)"/>
<path d="M0 0 C2.97 0.99 5.94 1.98 9 3 C8.01 3.99 7.02 4.98 6 6 C3.125 5.6875 3.125 5.6875 1.31640625 5.328125 C-3.73575302 4.61247343 -8.90770961 4.93108178 -14 5 C-14 4.01 -14 3.02 -14 2 C-9.9001485 0.46255569 -6.21798502 1.31967984 -2 2 C-1.34 2.33 -0.68 2.66 0 3 C0 2.01 0 1.02 0 0 Z " fill="#91D2C1" transform="translate(194,57)"/>
<path d="M0 0 C2.95749791 3.46741134 5.07848152 6.86873527 7 11 C6.34 11.66 5.68 12.32 5 13 C3.68 12.34 2.36 11.68 1 11 C0.01 11.66 -0.98 12.32 -2 13 C-2 9.04 -2 5.08 -2 1 C-1.34 0.67 -0.68 0.34 0 0 Z " fill="#90D3C2" transform="translate(66,39)"/>
<path d="M0 0 C1.828125 0.18359375 1.828125 0.18359375 4 1 C5.484375 3.28515625 5.484375 3.28515625 6.75 6.0625 C7.17796875 6.98160156 7.6059375 7.90070313 8.046875 8.84765625 C8.36140625 9.55792969 8.6759375 10.26820313 9 11 C6.10765685 11.82638376 4.11257569 12 1 12 C1.01740234 11.07767578 1.01740234 11.07767578 1.03515625 10.13671875 C1.04417969 9.32847656 1.05320313 8.52023438 1.0625 7.6875 C1.07410156 6.88699219 1.08570313 6.08648437 1.09765625 5.26171875 C1.09657855 2.83138666 1.09657855 2.83138666 0 0 Z " fill="#B2DDD8" transform="translate(239,172)"/>
<path d="M0 0 C4.56454251 0.54339792 7.9728176 1.79463821 12 4 C11.01 5.485 11.01 5.485 10 7 C7.5 7.125 7.5 7.125 5 7 C4.01 7.495 4.01 7.495 3 8 C3 7.34 3 6.68 3 6 C2.01 6.33 1.02 6.66 0 7 C0 4.69 0 2.38 0 0 Z " fill="#87C9A6" transform="translate(184,32)"/>
<path d="M0 0 C-1.07401108 2.91517292 -1.77810176 4.77810176 -4 7 C-4.99 7 -5.98 7 -7 7 C-7.28875 6.195625 -7.5775 5.39125 -7.875 4.5625 C-8.73262568 1.8673532 -8.73262568 1.8673532 -11 1 C-3.57142857 -1.42857143 -3.57142857 -1.42857143 0 0 Z " fill="#5BA194" transform="translate(147,89)"/>
<path d="M0 0 C2.64 0 5.28 0 8 0 C8.125 3.375 8.125 3.375 8 7 C7.34 7.66 6.68 8.32 6 9 C4.68 9 3.36 9 2 9 C0.875 7.25 0.875 7.25 0 5 C0.875 2.75 0.875 2.75 2 1 C1.34 0.67 0.68 0.34 0 0 Z " fill="#4DC0C1" transform="translate(120,116)"/>
<path d="M0 0 C2.65069433 2.47398137 4.71615844 4.57642251 6 8 C6 9.32 6 10.64 6 12 C5.01 12.33 4.02 12.66 3 13 C2.34 12.67 1.68 12.34 1 12 C0.66666667 10.33333333 0.33333333 8.66666667 0 7 C-0.95394836 4.97762948 -1.94535351 2.9717304 -3 1 C-2.01 0.67 -1.02 0.34 0 0 Z " fill="#7AC9B7" transform="translate(72,50)"/>
<path d="M0 0 C3.21764451 4.82646677 4.36261136 10.19821824 4 16 C0.50586395 13.13301658 -1.28836874 11.15849852 -1.8125 6.6875 C-1.874375 5.470625 -1.93625 4.25375 -2 3 C-1.34 3 -0.68 3 0 3 C0 2.01 0 1.02 0 0 Z " fill="#52BBB1" transform="translate(227,70)"/>
<path d="M0 0 C3.96 0 7.92 0 12 0 C11.34 1.32 10.68 2.64 10 4 C7.66682784 4.77772405 5.38564077 5.42415568 3 6 C2.01 4.02 1.02 2.04 0 0 Z " fill="#F5F6F5" transform="translate(12,30)"/>
<path d="M0 0 C3.29148243 1.13499394 3.9959869 1.99283376 5.75 5.125 C6.1625 6.07375 6.575 7.0225 7 8 C7.99 8 8.98 8 10 8 C9.34 9.32 8.68 10.64 8 12 C7.01 12 6.02 12 5 12 C3.61328125 10.390625 3.61328125 10.390625 2.3125 8.25 C1.87550781 7.55390625 1.43851563 6.8578125 0.98828125 6.140625 C0 4 0 4 0 0 Z " fill="#5EB7B1" transform="translate(179,146)"/>
<path d="M0 0 C0.66 0.33 1.32 0.66 2 1 C2.625 3.5625 2.625 3.5625 3 6 C1.88625 6.309375 1.88625 6.309375 0.75 6.625 C-2.78290959 8.39145479 -3.92542642 10.70929709 -6 14 C-6.66 14 -7.32 14 -8 14 C-6.6744419 10.37723685 -5.05653045 7.36494652 -2.875 4.1875 C-2.33617188 3.39730469 -1.79734375 2.60710937 -1.2421875 1.79296875 C-0.83226563 1.20128906 -0.42234375 0.60960938 0 0 Z " fill="#3B7B7C" transform="translate(108,74)"/>
<path d="M0 0 C1.22589844 0.29197266 1.22589844 0.29197266 2.4765625 0.58984375 C3.41628906 0.82380859 3.41628906 0.82380859 4.375 1.0625 C4.375 2.3825 4.375 3.7025 4.375 5.0625 C-0.375 4.1875 -0.375 4.1875 -2.625 3.0625 C-2.295 4.3825 -1.965 5.7025 -1.625 7.0625 C-4.15088702 4.69957344 -5.51320837 3.39787489 -6.625 0.0625 C-3.99249612 -1.25375194 -2.82320944 -0.68563658 0 0 Z " fill="#32AA9F" transform="translate(67.625,111.9375)"/>
<path d="M0 0 C2.3125 2.0625 2.3125 2.0625 4 4 C1.125 4.125 1.125 4.125 -2 4 C-2.66 3.34 -3.32 2.68 -4 2 C-5.98 2.66 -7.96 3.32 -10 4 C-10 2.68 -10 1.36 -10 0 C-6.31616882 -0.94727087 -3.63843334 -1.21281111 0 0 Z " fill="#086F73" transform="translate(211,68)"/>
<path d="M0 0 C2.31 0 4.62 0 7 0 C7.33 0.66 7.66 1.32 8 2 C4.82679218 5.53586014 2.83256305 7.58578031 -2 8 C-1.34 7.67 -0.68 7.34 0 7 C1.09036928 4.0262656 1.03864166 3.11592499 0 0 Z " fill="#2F7170" transform="translate(128,104)"/>
<path d="M0 0 C3.0916909 2.52956528 3.90931332 5.22454612 5 9 C3.00045254 9.04254356 0.99958364 9.04080783 -1 9 C-2 8 -2 8 -2.0625 4.9375 C-2.041875 3.968125 -2.02125 2.99875 -2 2 C-1.34 2 -0.68 2 0 2 C0 1.34 0 0.68 0 0 Z " fill="#A9D9CC" transform="translate(61,31)"/>
<path d="M0 0 C2.64 0 5.28 0 8 0 C7.125 5.75 7.125 5.75 6 8 C5.34 8 4.68 8 4 8 C2.68 5.36 1.36 2.72 0 0 Z " fill="#489E9D" transform="translate(80,144)"/>
<path d="M0 0 C1.125 1.5625 1.125 1.5625 2 4 C1.125 7.75 1.125 7.75 0 11 C-1.32 10.67 -2.64 10.34 -4 10 C-4.33 8.35 -4.66 6.7 -5 5 C-4.01 5 -3.02 5 -2 5 C-1.34 3.35 -0.68 1.7 0 0 Z " fill="#286063" transform="translate(104,83)"/>
<path d="M0 0 C0.66 0.66 1.32 1.32 2 2 C3.98356483 2.71408334 5.98315437 3.38617742 8 4 C7.67 5.65 7.34 7.3 7 9 C3.15314615 7.75237172 0.97070595 6.6129609 -1 3 C-0.67 2.01 -0.34 1.02 0 0 Z " fill="#88C8C5" transform="translate(191,165)"/>
<path d="M0 0 C3.96 0 7.92 0 12 0 C12 0.99 12 1.98 12 3 C11.46375 2.7525 10.9275 2.505 10.375 2.25 C6.71245136 1.86446856 4.84242621 3.86818034 2 6 C1.34 5.34 0.68 4.68 0 4 C0 2.68 0 1.36 0 0 Z " fill="#10AEA8" transform="translate(164,116)"/>
<path d="M0 0 C1.62490954 -0.02698189 3.24994633 -0.04638757 4.875 -0.0625 C5.77992187 -0.07410156 6.68484375 -0.08570312 7.6171875 -0.09765625 C10 0 10 0 12 1 C12 1.66 12 2.32 12 3 C11.071875 3.144375 10.14375 3.28875 9.1875 3.4375 C5.99274889 3.92100111 5.99274889 3.92100111 3 5 C0.8125 4.0625 0.8125 4.0625 -1 3 C-0.67 2.01 -0.34 1.02 0 0 Z " fill="#3CA4A1" transform="translate(113,111)"/>
<path d="M0 0 C1.98 0 3.96 0 6 0 C6 0.33 6 0.66 6 1 C10.95 1.33 15.9 1.66 21 2 C21 2.33 21 2.66 21 3 C10.11 3.495 10.11 3.495 -1 4 C-0.67 2.68 -0.34 1.36 0 0 Z " fill="#9ED7D2" transform="translate(208,185)"/>
<path d="M0 0 C0.66 0 1.32 0 2 0 C3.98 3.63 5.96 7.26 8 11 C5 11 5 11 2.875 10 C0.00725613 6.94107321 0.27059544 4.12658045 0 0 Z " fill="#39AA9F" transform="translate(96,92)"/>
<path d="M0 0 C4.875 4.625 4.875 4.625 6 8 C3.69 7.67 1.38 7.34 -1 7 C-1.33 7.66 -1.66 8.32 -2 9 C-2.33 8.34 -2.66 7.68 -3 7 C-2.67 6.01 -2.34 5.02 -2 4 C-1.34 4 -0.68 4 0 4 C0 2.68 0 1.36 0 0 Z " fill="#77CDB5" transform="translate(212,47)"/>
<path d="M0 0 C5.99725275 2.10714286 5.99725275 2.10714286 8 5 C7.6875 7.1875 7.6875 7.1875 7 9 C6.01 9 5.02 9 4 9 C3.731875 8.21625 3.46375 7.4325 3.1875 6.625 C2.15185568 3.71885077 2.15185568 3.71885077 -1 2 C-0.67 1.34 -0.34 0.68 0 0 Z " fill="#8AC6B5" transform="translate(204,42)"/>
<path d="M0 0 C2.31 0 4.62 0 7 0 C7 1.65 7 3.3 7 5 C5.35 5.33 3.7 5.66 2 6 C1.34 4.02 0.68 2.04 0 0 Z " fill="#9AD3C3" transform="translate(33,64)"/>
<path d="M0 0 C1.4800841 0.11362262 2.95910074 0.24122908 4.4375 0.375 C5.26121094 0.44460937 6.08492187 0.51421875 6.93359375 0.5859375 C7.95646484 0.79089844 7.95646484 0.79089844 9 1 C9.33 1.66 9.66 2.32 10 3 C9.01 3.99 8.02 4.98 7 6 C6.67 5.34 6.34 4.68 6 4 C5.34 4.66 4.68 5.32 4 6 C3.01 6.495 3.01 6.495 2 7 C1.34 4.69 0.68 2.38 0 0 Z " fill="#84CCBA" transform="translate(38,71)"/>
<path d="M0 0 C0 0.66 0 1.32 0 2 C0.66 2.33 1.32 2.66 2 3 C0.39967863 3.84069415 -1.20541171 4.67231505 -2.8125 5.5 C-4.15248047 6.19609375 -4.15248047 6.19609375 -5.51953125 6.90625 C-8 8 -8 8 -11 8 C-9.87811441 6.85111717 -8.75238316 5.70598863 -7.625 4.5625 C-6.99851563 3.92441406 -6.37203125 3.28632812 -5.7265625 2.62890625 C-3.74785826 0.76211967 -2.74097805 0 0 0 Z " fill="#082F29" transform="translate(165,69)"/>
<path d="M0 0 C2 3 2 3 2 7 C1.34 7 0.68 7 0 7 C-0.33 7.66 -0.66 8.32 -1 9 C-1 7.68 -1 6.36 -1 5 C-2.98 5.99 -2.98 5.99 -5 7 C-5.33 6.01 -5.66 5.02 -6 4 C-5.34 4 -4.68 4 -4 4 C-3.67 3.01 -3.34 2.02 -3 1 C-2.01 0.67 -1.02 0.34 0 0 Z " fill="#27B6B6" transform="translate(175,128)"/>
<path d="M0 0 C0.99 0 1.98 0 3 0 C4.28317892 3.84953676 4.06643637 6.94738135 4 11 C3.34 11 2.68 11 2 11 C0.19769832 7.17010894 -0.19622241 4.21878192 0 0 Z " fill="#0A9B9D" transform="translate(224,90)"/>
<path d="M0 0 C1.9375 0.375 1.9375 0.375 4 1 C4.33 1.66 4.66 2.32 5 3 C5.7734375 3.8971875 5.7734375 3.8971875 6.5625 4.8125 C8.27835451 7.42358294 8.25524262 8.9370886 8 12 C4.02502456 8.59287819 2.13206212 4.67239145 0 0 Z " fill="#B8D9CF" transform="translate(25,52)"/>
<path d="M0 0 C0 0.66 0 1.32 0 2 C-0.99 2.66 -1.98 3.32 -3 4 C-3 4.66 -3 5.32 -3 6 C-2.34 6.66 -1.68 7.32 -1 8 C-1.66 8.66 -2.32 9.32 -3 10 C-3 9.34 -3 8.68 -3 8 C-4.32 8 -5.64 8 -7 8 C-6.42415568 5.61435923 -5.77772405 3.33317216 -5 1 C-3 0 -3 0 0 0 Z " fill="#2BBBB6" transform="translate(222,120)"/>
<path d="M0 0 C2.97 0.99 5.94 1.98 9 3 C8.01 3.99 7.02 4.98 6 6 C2.3125 5.6875 2.3125 5.6875 -1 5 C-0.67 3.35 -0.34 1.7 0 0 Z " fill="#81C9BC" transform="translate(194,57)"/>
<path d="M0 0 C3 2 3 2 5 7 C0.71 7 -3.58 7 -8 7 C-8 6.67 -8 6.34 -8 6 C-5.36 6 -2.72 6 0 6 C0 4.02 0 2.04 0 0 Z " fill="#B6DEDD" transform="translate(248,184)"/>
<path d="M0 0 C1.485 0.99 1.485 0.99 3 2 C3.99 2.33 4.98 2.66 6 3 C5.34 4.98 4.68 6.96 4 9 C1.47740939 7.02579865 1.0070192 6.03254358 0.3125 2.8125 C0.209375 1.884375 0.10625 0.95625 0 0 Z " fill="#65BBA9" transform="translate(144,81)"/>
<path d="M0 0 C2.375 0.25 2.375 0.25 5 1 C6.3125 3.0625 6.3125 3.0625 7 5 C5.02 5.99 5.02 5.99 3 7 C3 6.34 3 5.68 3 5 C2.01 5.33 1.02 5.66 0 6 C0 4.02 0 2.04 0 0 Z " fill="#A5D3BE" transform="translate(184,33)"/>
<path d="M0 0 C0.99 0.99 1.98 1.98 3 3 C1.35 5.64 -0.3 8.28 -2 11 C-2.99 10.67 -3.98 10.34 -5 10 C-4.34 9.67 -3.68 9.34 -3 9 C-2.09274566 6.88672575 -2.09274566 6.88672575 -1.375 4.4375 C-1.11460938 3.61121094 -0.85421875 2.78492188 -0.5859375 1.93359375 C-0.39257812 1.29550781 -0.19921875 0.65742188 0 0 Z " fill="#54AEAB" transform="translate(113,140)"/>
<path d="M0 0 C0.33 1.98 0.66 3.96 1 6 C-0.32 6.33 -1.64 6.66 -3 7 C-3.66 5.68 -4.32 4.36 -5 3 C-2.25 0 -2.25 0 0 0 Z " fill="#A4D4BF" transform="translate(135,41)"/>
<path d="M0 0 C1.32 0.66 2.64 1.32 4 2 C3.01 3.485 3.01 3.485 2 5 C1.34 4.67 0.68 4.34 0 4 C-1.87056791 3.7724985 -3.74685958 3.59037189 -5.625 3.4375 C-6.62789063 3.35371094 -7.63078125 3.26992187 -8.6640625 3.18359375 C-9.43492188 3.12300781 -10.20578125 3.06242188 -11 3 C-11 2.67 -11 2.34 -11 2 C-10.28972656 1.93941406 -9.57945313 1.87882813 -8.84765625 1.81640625 C-7.46900391 1.69072266 -7.46900391 1.69072266 -6.0625 1.5625 C-5.14597656 1.48128906 -4.22945313 1.40007812 -3.28515625 1.31640625 C-1.03840268 1.23955024 -1.03840268 1.23955024 0 0 Z " fill="#5C9A9D" transform="translate(106,149)"/>
<path d="M0 0 C-0.639375 0.2475 -1.27875 0.495 -1.9375 0.75 C-4.18741541 1.81562433 -4.18741541 1.81562433 -4.75 4.125 C-4.8325 4.74375 -4.915 5.3625 -5 6 C-5.99 6 -6.98 6 -8 6 C-8 4.35 -8 2.7 -8 1 C-4.93251126 -0.86240388 -3.40254489 -1.2151946 0 0 Z " fill="#094549" transform="translate(181,63)"/>
<path d="M0 0 C0.66 0 1.32 0 2 0 C1.34 2.64 0.68 5.28 0 8 C-0.99 7.67 -1.98 7.34 -3 7 C-2.25 2.25 -2.25 2.25 0 0 Z " fill="#96CCB9" transform="translate(127,46)"/>
<path d="M0 0 C0.99 0.33 1.98 0.66 3 1 C3 3.64 3 6.28 3 9 C2.01 9.495 2.01 9.495 1 10 C-1.56687367 6.1496895 -0.83288724 4.41430237 0 0 Z " fill="#75D1CB" transform="translate(225,146)"/>
<path d="M0 0 C0.33 0.66 0.66 1.32 1 2 C1.66 2 2.32 2 3 2 C3.33 3.98 3.66 5.96 4 8 C3.01 8 2.02 8 1 8 C0.01 5.69 -0.98 3.38 -2 1 C-1.34 0.67 -0.68 0.34 0 0 Z " fill="#4A9996" transform="translate(77,134)"/>
<path d="M0 0 C0.38922918 1.28745036 0.76098036 2.58019597 1.125 3.875 C1.33382812 4.59429687 1.54265625 5.31359375 1.7578125 6.0546875 C1.83773437 6.69664063 1.91765625 7.33859375 2 8 C1.34 8.66 0.68 9.32 0 10 C-1.32 7.03 -2.64 4.06 -4 1 C-2 0 -2 0 0 0 Z " fill="#49C1BB" transform="translate(225,77)"/>
<path d="M0 0 C1.74627478 2.61941217 2.38722388 4.03824877 3 7 C1.68 7.33 0.36 7.66 -1 8 C-1.66 6.02 -2.32 4.04 -3 2 C-2.01 1.34 -1.02 0.68 0 0 Z " fill="#32AFA6" transform="translate(174,132)"/>
<path d="M0 0 C0.66 0.33 1.32 0.66 2 1 C2 2.65 2 4.3 2 6 C0.68 6.33 -0.64 6.66 -2 7 C-2.33 5.68 -2.66 4.36 -3 3 C-2.01 2.67 -1.02 2.34 0 2 C0 1.34 0 0.68 0 0 Z " fill="#34AFA3" transform="translate(62,105)"/>
<path d="M0 0 C0.99 0.33 1.98 0.66 3 1 C3.29296875 7.0546875 3.29296875 7.0546875 3 9 C2.01 9.66 1.02 10.32 0 11 C0 7.37 0 3.74 0 0 Z " fill="#208B8A" transform="translate(190,87)"/>
<path d="M0 0 C2.52588702 2.36292656 3.88820837 3.66462511 5 7 C2.61435923 6.42415568 0.33317216 5.77772405 -2 5 C-2 4.01 -2 3.02 -2 2 C-1.34 2 -0.68 2 0 2 C0 1.34 0 0.68 0 0 Z " fill="#36BDB0" transform="translate(87,75)"/>
<path d="M0 0 C1.65 0 3.3 0 5 0 C4.690625 0.598125 4.38125 1.19625 4.0625 1.8125 C2.89790296 4.08956772 2.89790296 4.08956772 2 7 C1.01 7 0.02 7 -1 7 C-0.67 4.69 -0.34 2.38 0 0 Z " fill="#99CDBC" transform="translate(153,72)"/>
<path d="M0 0 C1.77049689 -0.05410687 3.54146849 -0.09284119 5.3125 -0.125 C6.29863281 -0.14820313 7.28476563 -0.17140625 8.30078125 -0.1953125 C11 0 11 0 14 2 C9.66666667 2 5.33333333 2 1 2 C0.67 1.34 0.34 0.68 0 0 Z " fill="#0B4F54" transform="translate(182,62)"/>
<path d="M0 0 C0.66 0.33 1.32 0.66 2 1 C0.68 3.31 -0.64 5.62 -2 8 C-2.66 8 -3.32 8 -4 8 C-3.6875 5.125 -3.6875 5.125 -3 2 C-2.01 1.34 -1.02 0.68 0 0 Z " fill="#64C0C3" transform="translate(134,108)"/>
<path d="M0 0 C0.66 0.33 1.32 0.66 2 1 C2 2.32 2 3.64 2 5 C1.34 5 0.68 5 0 5 C-0.33 5.99 -0.66 6.98 -1 8 C-1.99 8 -2.98 8 -4 8 C-3.67 7.01 -3.34 6.02 -3 5 C-2.01 4.67 -1.02 4.34 0 4 C0 2.68 0 1.36 0 0 Z " fill="#41B5A4" transform="translate(85,72)"/>
<path d="M0 0 C1.65 1.65 3.3 3.3 5 5 C4.34 6.32 3.68 7.64 3 9 C0.70620251 5.55930376 0 4.27709699 0 0 Z " fill="#136664" transform="translate(98,90)"/>
<path d="M0 0 C0.93065133 2.60582371 1.14917407 3.64198224 0.0625 6.25 C-0.4634375 7.11625 -0.4634375 7.11625 -1 8 C-1.99 7.01 -2.98 6.02 -4 5 C-3.34 4.67 -2.68 4.34 -2 4 C-0.86649466 1.98330173 -0.86649466 1.98330173 0 0 Z " fill="#108A8D" transform="translate(191,78)"/>
<path d="M0 0 C1.625 1.6875 1.625 1.6875 3 4 C2.1875 6.75 2.1875 6.75 1 9 C-1 8 -1 8 -1.75 6.1875 C-2.05694702 3.50171361 -1.38111722 2.2747813 0 0 Z " fill="#4A8C8E" transform="translate(110,69)"/>
<path d="M0 0 C1.9375 0.75 1.9375 0.75 4 2 C4.75 4.125 4.75 4.125 5 6 C3.68 6 2.36 6 1 6 C0.67 4.02 0.34 2.04 0 0 Z " fill="#55BCB8" transform="translate(179,146)"/>
<path d="M0 0 C-0.33 1.32 -0.66 2.64 -1 4 C-2.65 4 -4.3 4 -6 4 C-6.33 3.01 -6.66 2.02 -7 1 C-4.57333205 -0.21333397 -2.66500278 0 0 0 Z " fill="#82C4B5" transform="translate(152,80)"/>
<path d="M0 0 C3.3 0.99 6.6 1.98 10 3 C9.67 3.66 9.34 4.32 9 5 C5.26512223 4.5020163 3.18762365 4.12508244 0 2 C0 1.34 0 0.68 0 0 Z " fill="#0F5D67" transform="translate(175,70)"/>
<path d="M0 0 C1.32 0.33 2.64 0.66 4 1 C4 2.32 4 3.64 4 5 C3.34 5.66 2.68 6.32 2 7 C0 4 0 4 0 0 Z " fill="#DDEFE5" transform="translate(20,41)"/>
<path d="M0 0 C2.83374881 3.20336822 3.5205537 5.78087253 4 10 C3.34 10 2.68 10 2 10 C2 8.35 2 6.7 2 5 C1.01 4.67 0.02 4.34 -1 4 C-0.67 2.68 -0.34 1.36 0 0 Z " fill="#69B7B9" transform="translate(222,139)"/>
<path d="M0 0 C0.99 0.33 1.98 0.66 3 1 C2.34 2.98 1.68 4.96 1 7 C0.01 7 -0.98 7 -2 7 C-1.34 4.69 -0.68 2.38 0 0 Z " fill="#4EA0A4" transform="translate(116,134)"/>
<path d="M0 0 C0.99 0.66 1.98 1.32 3 2 C3.1875 5.125 3.1875 5.125 3 8 C0.47411298 5.63707344 -0.88820837 4.33537489 -2 1 C-1.34 0.67 -0.68 0.34 0 0 Z " fill="#359F8C" transform="translate(63,111)"/>
<path d="M0 0 C1.2065625 0.0309375 1.2065625 0.0309375 2.4375 0.0625 C1.7775 1.3825 1.1175 2.7025 0.4375 4.0625 C-0.5525 4.0625 -1.5425 4.0625 -2.5625 4.0625 C-2.8925 3.0725 -3.2225 2.0825 -3.5625 1.0625 C-2.5625 0.0625 -2.5625 0.0625 0 0 Z " fill="#559990" transform="translate(142.5625,91.9375)"/>
<path d="M0 0 C1.98 0 3.96 0 6 0 C5.67 1.32 5.34 2.64 5 4 C3.68 4 2.36 4 1 4 C0.67 2.68 0.34 1.36 0 0 Z " fill="#DAEBE5" transform="translate(23,48)"/>
<path d="M0 0 C1.32 0 2.64 0 4 0 C4.33 1.32 4.66 2.64 5 4 C3.02 4.33 1.04 4.66 -1 5 C-0.67 3.35 -0.34 1.7 0 0 Z " fill="#A1D2CE" transform="translate(233,163)"/>
<path d="M0 0 C0.99 0.33 1.98 0.66 3 1 C3.6875 3.0625 3.6875 3.0625 4 5 C3.01 5.495 3.01 5.495 2 6 C1.34 5.67 0.68 5.34 0 5 C0 3.35 0 1.7 0 0 Z " fill="#84D8D2" transform="translate(232,158)"/>
<path d="M0 0 C0.99 0.33 1.98 0.66 3 1 C3 1.66 3 2.32 3 3 C1.1875 4.0625 1.1875 4.0625 -1 5 C-1.99 4.67 -2.98 4.34 -4 4 C-3.34 4 -2.68 4 -2 4 C-2 3.01 -2 2.02 -2 1 C-1.34 0.67 -0.68 0.34 0 0 Z " fill="#1E6F6D" transform="translate(130,107)"/>
<path d="M0 0 C4.875 4.75 4.875 4.75 6 7 C4.68 7 3.36 7 2 7 C1.34 4.69 0.68 2.38 0 0 Z " fill="#0A8182" transform="translate(216,73)"/>
<path d="M0 0 C2.97 0.495 2.97 0.495 6 1 C6 4 6 4 5 7 C3.29115995 5.37660195 1.62553283 3.70680947 0 2 C0 1.34 0 0.68 0 0 Z " fill="#156371" transform="translate(181,74)"/>
</svg>
